<svg xmlns="http://www.w3.org/2000/svg" viewBox="0 0 96 96"><title>Pastie, working (placeholder)</title><defs>
  <radialGradient id="batter" cx="40%" cy="35%" r="70%">
    <stop offset="0" stop-color="#f6c46a"/><stop offset="0.6" stop-color="#e39a35"/><stop offset="1" stop-color="#b86a1c"/>
  </radialGradient>
  <linearGradient id="metal" x1="0" y1="0" x2="1" y2="1">
    <stop offset="0" stop-color="#f4dca6"/><stop offset="1" stop-color="#9c7432"/>
  </linearGradient>
</defs><g fill="#f2cf73" stroke="#c9953a" stroke-width="0.8"><rect x="16" y="70" width="22" height="8" rx="2.5" transform="rotate(-12 27 74)"/><rect x="58" y="72" width="22" height="8" rx="2.5" transform="rotate(10 69 76)"/><rect x="36" y="74" width="24" height="8" rx="2.5"/></g><ellipse cx="48" cy="50" rx="31" ry="26" fill="url(#batter)"/><circle cx="30" cy="34" r="1.3" fill="#fbe0a2" opacity="0.55"/><circle cx="40" cy="28" r="1.3" fill="#fbe0a2" opacity="0.55"/><circle cx="55" cy="30" r="1.3" fill="#fbe0a2" opacity="0.55"/><circle cx="66" cy="38" r="1.3" fill="#fbe0a2" opacity="0.55"/><circle cx="34" cy="52" r="1.3" fill="#fbe0a2" opacity="0.55"/><circle cx="62" cy="56" r="1.3" fill="#fbe0a2" opacity="0.55"/><circle cx="48" cy="64" r="1.3" fill="#fbe0a2" opacity="0.55"/><circle cx="70" cy="48" r="1.3" fill="#fbe0a2" opacity="0.55"/><circle cx="26" cy="46" r="1.3" fill="#fbe0a2" opacity="0.55"/><circle cx="58" cy="70" r="1.3" fill="#fbe0a2" opacity="0.55"/><path d="M32 37 l11 2" stroke="#7a4512" stroke-width="2.2" stroke-linecap="round"/><path d="M64 37 l-11 2" stroke="#7a4512" stroke-width="2.2" stroke-linecap="round"/><circle cx="38" cy="46" r="5.2" fill="#2b1a0a"/><circle cx="58" cy="46" r="5.2" fill="#2b1a0a"/><circle cx="41.6" cy="44.6" r="1.7" fill="#fff"/><circle cx="61.6" cy="44.6" r="1.7" fill="#fff"/><path d="M44 59 q4 2 8 0" stroke="#5a300c" stroke-width="2.2" fill="none" stroke-linecap="round"/><path d="M20 58 q-6 6 -4 14" stroke="url(#metal)" stroke-width="5" fill="none" stroke-linecap="round"/><circle cx="20" cy="58" r="3.6" fill="url(#metal)"/><path d="M76 58 q8 -2 10 -10" stroke="url(#metal)" stroke-width="5" fill="none" stroke-linecap="round"/><rect x="74" y="30" width="16" height="20" rx="2" fill="#f3ead8" stroke="#6b5d44"/><rect x="79" y="28" width="6" height="4" rx="1" fill="#6b5d44"/><path d="M77 37 h10 M77 41 h10 M77 45 h7" stroke="#8a7a5c" stroke-width="1.2"/></svg>
